<svg width="48" height="48" viewBox="0 0 48 48" fill="none" xmlns="http://www.w3.org/2000/svg">
<path opacity="0.5" d="M6.928 41.072C9.86 44 14.572 44 24 44C33.428 44 38.142 44 41.07 41.07C44 38.144 44 33.428 44 24C44 14.572 44 9.858 41.07 6.928C38.144 4 33.428 4 24 4C14.572 4 9.858 4 6.928 6.928C4 9.86 4 14.572 4 24C4 33.428 4 38.144 6.928 41.072Z" fill="#A9EE99"/>
<path d="M37.162 18.948C37.2916 18.796 37.3895 18.6197 37.45 18.4294C37.5105 18.239 37.5324 18.0385 37.5144 17.8396C37.4964 17.6407 37.4389 17.4474 37.3452 17.2711C37.2515 17.0947 37.1235 16.9388 36.9687 16.8126C36.814 16.6863 36.6356 16.5923 36.444 16.5359C36.2524 16.4795 36.0515 16.4619 35.853 16.4842C35.6546 16.5065 35.4626 16.5682 35.2883 16.6657C35.114 16.7632 34.9609 16.8945 34.838 17.052L24.502 29.712C24.2063 29.606 23.8848 29.5956 23.5829 29.6823C23.281 29.769 23.014 29.9484 22.8196 30.1952C22.6252 30.4419 22.5134 30.7436 22.4998 31.0574C22.4862 31.3712 22.5717 31.6814 22.744 31.944L23.316 32.82C23.445 33.0175 23.6188 33.1818 23.8232 33.2995C24.0276 33.4172 24.257 33.4851 24.4925 33.4976C24.7281 33.51 24.9633 33.4668 25.179 33.3713C25.3947 33.2758 25.5849 33.1308 25.734 32.948L37.162 18.948ZM29.162 18.948C29.2916 18.796 29.3895 18.6197 29.45 18.4294C29.5105 18.239 29.5324 18.0385 29.5144 17.8396C29.4964 17.6407 29.4389 17.4474 29.3452 17.2711C29.2515 17.0947 29.1235 16.9388 28.9687 16.8126C28.814 16.6863 28.6356 16.5923 28.444 16.5359C28.2524 16.4795 28.0515 16.4619 27.853 16.4842C27.6546 16.5065 27.4626 16.5682 27.2883 16.6657C27.114 16.7632 26.9609 16.8945 26.838 17.052L16.572 29.628L13.162 25.452C12.9076 25.1535 12.5463 24.9666 12.1557 24.9312C11.7651 24.8959 11.3762 25.0149 11.0723 25.2628C10.7684 25.5108 10.5737 25.8679 10.5299 26.2576C10.4861 26.6474 10.5967 27.0388 10.838 27.348L15.41 32.948C15.5507 33.1203 15.7279 33.2592 15.9289 33.3546C16.1299 33.45 16.3496 33.4994 16.572 33.4994C16.7945 33.4994 17.0141 33.45 17.2151 33.3546C17.4161 33.2592 17.5933 33.1203 17.734 32.948L29.162 18.948Z" fill="#17D900"/>
</svg>
